<svg width="201" height="200" viewBox="0 0 201 200" fill="none" xmlns="http://www.w3.org/2000/svg">
<path d="M200.53 99.87C200.53 44.7133 155.817 0 100.66 0C45.5034 0 0.790039 44.7133 0.790039 99.87C0.790039 155.027 45.5034 199.74 100.66 199.74C155.817 199.74 200.53 155.027 200.53 99.87Z" fill="url(#paint0_linear_72_456)"/>
<path d="M188.847 99.87C188.847 51.1605 149.361 11.6736 100.651 11.6736C51.9415 11.6736 12.4546 51.1605 12.4546 99.87C12.4546 148.58 51.9415 188.066 100.651 188.066C149.361 188.066 188.847 148.58 188.847 99.87Z" stroke="#FAFAFA" stroke-width="12" stroke-miterlimit="10"/>
<path fill-rule="evenodd" clip-rule="evenodd" d="M77.129 104.369C71.1652 102.966 66.8283 99.3656 65.3667 97.7577C65.5217 94.5039 66.0031 91.2657 66.8099 88.105C69.176 78.8797 74.2888 70.7412 81.5819 64.5753C86.6793 60.2654 92.5057 57.1593 98.4253 55.5827C104.291 54.022 110.133 53.9753 115.315 55.4508C119.086 56.5225 122.384 58.3473 125.107 60.8712C127.97 63.527 130.064 66.8275 131.321 70.6868C134.781 81.2946 130.957 93.8283 121.344 103.403C115.378 109.336 107.79 113.576 99.3953 115.657C94.8799 116.776 90.1858 117.249 85.4533 117.055C83.8508 116.993 82.2153 116.86 80.6046 116.645C78.5049 112.436 77.421 106.705 77.129 104.369ZM77.129 104.369C76.6091 99.8808 76.7483 95.3116 77.8656 90.9706C79.6424 84.0514 83.4748 77.9478 88.9448 73.3272C92.7618 70.1044 97.0524 67.7904 101.358 66.6487C105.237 65.616 108.985 65.5539 112.189 66.4701C115.075 67.2855 118.854 69.3047 120.467 74.2591C121.476 77.3497 121.383 80.8986 120.196 84.5251C118.939 88.338 116.557 92.0731 113.291 95.3193C108.798 99.8 103.042 102.999 96.6567 104.584C93.1883 105.438 89.573 105.803 85.9188 105.655C82.9707 105.539 80.1237 105.146 77.129 104.369Z" fill="url(#paint1_angular_72_456)"/>
<path d="M106.518 146.782C108.124 146.952 109.807 147.038 111.546 147.038V147.015C123.641 147.015 138.312 142.736 147.902 130.474C149.841 127.989 149.407 124.393 146.924 122.452C144.441 120.511 140.857 120.946 138.909 123.431C135.17 128.206 130.096 131.662 123.843 133.681C116.953 135.91 110.754 135.716 107.674 135.397C103.95 135.017 100.42 134.108 97.177 132.687C94.1201 131.351 91.2958 129.565 88.7897 127.368C85.4194 124.413 82.6448 120.769 80.605 116.644C77.809 116.346 71.1587 115.036 66.9653 112.59C67.1285 113.234 67.3144 113.863 67.5084 114.5C70.1074 122.941 74.8789 130.373 81.2872 135.98C84.6777 138.946 88.4951 141.369 92.6226 143.171C96.9517 145.065 101.622 146.277 106.518 146.782Z" fill="white"/>
<path d="M65.3672 97.7578C63.6062 96.2979 61.8294 94.5738 60.2933 92.6092C58.3533 90.1243 54.7612 89.6894 52.2786 91.6307C49.7961 93.5721 49.3614 97.1675 51.3009 99.6526C56.3984 106.176 63.1792 110.501 66.9654 112.59C66.3808 110.836 65.3672 105.476 65.3672 97.7578Z" fill="url(#paint2_linear_72_456)"/>
<path d="M65.3667 97.7578C66.8283 99.3657 71.1651 102.966 77.1289 104.369C77.421 106.705 78.5049 112.436 80.6046 116.645C77.8086 116.346 71.1583 115.036 66.9649 112.59C66.3803 110.836 65.3667 105.476 65.3667 97.7578Z" fill="white"/>
<defs>
<linearGradient id="paint0_linear_72_456" x1="171.272" y1="29.2497" x2="30.0397" y2="170.49" gradientUnits="userSpaceOnUse">
<stop stop-color="#97D991"/>
<stop offset="0.11" stop-color="#92D691"/>
<stop offset="0.22" stop-color="#86D091"/>
<stop offset="0.33" stop-color="#74C691"/>
<stop offset="0.42" stop-color="#6DC192"/>
<stop offset="0.55" stop-color="#5CB597"/>
<stop offset="0.66" stop-color="#47A79E"/>
<stop offset="0.74" stop-color="#3B9C98"/>
<stop offset="0.89" stop-color="#1E7F88"/>
<stop offset="1" stop-color="#02657A"/>
</linearGradient>
<radialGradient id="paint1_angular_72_456" cx="0" cy="0" r="1" gradientUnits="userSpaceOnUse" gradientTransform="translate(98.9707 85.7373) rotate(139.686) scale(41.677 44.6591)">
<stop stop-color="white"/>
<stop offset="1" stop-color="#DDDDDD"/>
</radialGradient>
<linearGradient id="paint2_linear_72_456" x1="52.7205" y1="92.529" x2="66.7534" y2="106.562" gradientUnits="userSpaceOnUse">
<stop stop-color="white"/>
<stop offset="1" stop-color="#D9D9D9"/>
</linearGradient>
</defs>
</svg>
